<svg width="200" height="200" viewBox="0 0 200 200" fill="none" xmlns="http://www.w3.org/2000/svg">
<circle cx="7.5" cy="7.5" r="7.5" fill="#F4F1F1"/>
<circle cx="26.5" cy="7.5" r="7.5" fill="#F4F1F1"/>
<circle cx="45.5" cy="7.5" r="7.5" fill="#F4F1F1"/>
<circle cx="64.5" cy="7.5" r="7.5" fill="#F4F1F1"/>
<circle cx="83.5" cy="7.5" r="7.5" fill="#F4F1F1"/>
<circle cx="102.5" cy="7.5" r="7.5" fill="#F4F1F1"/>
<circle cx="121.5" cy="7.5" r="7.5" fill="#F4F1F1"/>
<circle cx="140.5" cy="7.5" r="7.5" fill="#F4F1F1"/>
<circle cx="159.5" cy="7.5" r="7.5" fill="#F4F1F1"/>
<circle cx="178.5" cy="7.5" r="7.5" fill="#F4F1F1"/>
<circle cx="7.5" cy="26.5" r="7.5" fill="#F4F1F1"/>
<circle cx="26.5" cy="26.5" r="7.5" fill="#F4F1F1"/>
<circle cx="45.5" cy="26.5" r="7.5" fill="#F4F1F1"/>
<circle cx="64.5" cy="26.5" r="7.5" fill="#F4F1F1"/>
<circle cx="83.5" cy="26.5" r="7.5" fill="#F4F1F1"/>
<circle cx="102.5" cy="26.5" r="7.5" fill="#F4F1F1"/>
<circle cx="121.5" cy="26.5" r="7.5" fill="#F4F1F1"/>
<circle cx="140.5" cy="26.5" r="7.5" fill="#F4F1F1"/>
<circle cx="159.5" cy="26.5" r="7.5" fill="#F4F1F1"/>
<circle cx="178.5" cy="26.5" r="7.5" fill="#F4F1F1"/>
<circle cx="7.5" cy="45.5" r="7.5" fill="#F4F1F1"/>
<circle cx="26.5" cy="45.5" r="7.5" fill="#F4F1F1"/>
<circle cx="45.5" cy="45.5" r="7.5" fill="#F4F1F1"/>
<circle cx="64.5" cy="45.5" r="7.5" fill="#F4F1F1"/>
<circle cx="83.5" cy="45.5" r="7.5" fill="#F4F1F1"/>
<circle cx="102.5" cy="45.5" r="7.5" fill="#F4F1F1"/>
<circle cx="121.5" cy="45.5" r="7.5" fill="#F4F1F1"/>
<circle cx="140.5" cy="45.5" r="7.5" fill="#F4F1F1"/>
<circle cx="159.5" cy="45.5" r="7.5" fill="#F4F1F1"/>
<circle cx="178.5" cy="45.5" r="7.5" fill="#F4F1F1"/>
<circle cx="7.5" cy="64.5" r="7.5" fill="#F4F1F1"/>
<circle cx="26.5" cy="64.5" r="7.5" fill="#F4F1F1"/>
<circle cx="45.5" cy="64.5" r="7.5" fill="#F4F1F1"/>
<circle cx="64.5" cy="64.5" r="7.5" fill="#F4F1F1"/>
<circle cx="83.5" cy="64.5" r="7.5" fill="#F4F1F1"/>
<circle cx="102.5" cy="64.5" r="7.5" fill="#F4F1F1"/>
<circle cx="121.5" cy="64.5" r="7.5" fill="#F4F1F1"/>
<circle cx="140.5" cy="64.5" r="7.5" fill="#F4F1F1"/>
<circle cx="159.5" cy="64.5" r="7.5" fill="#F4F1F1"/>
<circle cx="178.5" cy="64.5" r="7.5" fill="#F4F1F1"/>
<circle cx="7.5" cy="83.5" r="7.5" fill="#F4F1F1"/>
<circle cx="26.5" cy="83.5" r="7.5" fill="#F4F1F1"/>
<circle cx="45.5" cy="83.5" r="7.5" fill="#F4F1F1"/>
<circle cx="64.5" cy="83.5" r="7.5" fill="#F4F1F1"/>
<circle cx="83.5" cy="83.5" r="7.5" fill="#F4F1F1"/>
<circle cx="102.5" cy="83.5" r="7.5" fill="#F4F1F1"/>
<circle cx="121.5" cy="83.5" r="7.5" fill="#F4F1F1"/>
<circle cx="140.5" cy="83.5" r="7.5" fill="#F4F1F1"/>
<circle cx="159.5" cy="83.5" r="7.5" fill="#F4F1F1"/>
<circle cx="178.5" cy="83.5" r="7.5" fill="#F4F1F1"/>
<circle cx="7.5" cy="102.5" r="7.5" fill="#F4F1F1"/>
<circle cx="26.5" cy="102.5" r="7.5" fill="#F4F1F1"/>
<circle cx="45.5" cy="102.5" r="7.5" fill="#F4F1F1"/>
<circle cx="64.5" cy="102.5" r="7.5" fill="#F4F1F1"/>
<circle cx="83.5" cy="102.5" r="7.5" fill="#F4F1F1"/>
<circle cx="102.5" cy="102.5" r="7.5" fill="#F4F1F1"/>
<circle cx="121.5" cy="102.5" r="7.5" fill="#F4F1F1"/>
<circle cx="140.5" cy="102.5" r="7.5" fill="#F4F1F1"/>
<circle cx="159.5" cy="102.5" r="7.5" fill="#F4F1F1"/>
<circle cx="178.5" cy="102.5" r="7.5" fill="#F4F1F1"/>
<circle cx="7.5" cy="121.5" r="7.5" fill="#F4F1F1"/>
<circle cx="26.5" cy="121.5" r="7.5" fill="#F4F1F1"/>
<circle cx="45.5" cy="121.5" r="7.5" fill="#F4F1F1"/>
<circle cx="64.5" cy="121.5" r="7.5" fill="#F4F1F1"/>
<circle cx="83.5" cy="121.5" r="7.5" fill="#F4F1F1"/>
<circle cx="102.5" cy="121.5" r="7.5" fill="#F4F1F1"/>
<circle cx="121.5" cy="121.5" r="7.5" fill="#F4F1F1"/>
<circle cx="140.5" cy="121.5" r="7.5" fill="#F4F1F1"/>
<circle cx="159.5" cy="121.5" r="7.5" fill="#F4F1F1"/>
<circle cx="178.5" cy="121.5" r="7.5" fill="#F4F1F1"/>
<circle cx="7.5" cy="140.5" r="7.5" fill="#F4F1F1"/>
<circle cx="26.5" cy="140.5" r="7.5" fill="#F4F1F1"/>
<circle cx="45.5" cy="140.5" r="7.5" fill="#F4F1F1"/>
<circle cx="64.5" cy="140.5" r="7.5" fill="#F4F1F1"/>
<circle cx="83.5" cy="140.5" r="7.5" fill="#F4F1F1"/>
<circle cx="102.5" cy="140.5" r="7.5" fill="#F4F1F1"/>
<circle cx="121.5" cy="140.5" r="7.5" fill="#F4F1F1"/>
<circle cx="140.5" cy="140.5" r="7.5" fill="#F4F1F1"/>
<circle cx="159.5" cy="140.5" r="7.5" fill="#F4F1F1"/>
<circle cx="178.5" cy="140.5" r="7.5" fill="#F4F1F1"/>
<circle cx="7.5" cy="159.5" r="7.5" fill="#F4F1F1"/>
<circle cx="26.5" cy="159.5" r="7.5" fill="#F4F1F1"/>
<circle cx="45.5" cy="159.5" r="7.5" fill="#F4F1F1"/>
<circle cx="64.5" cy="159.5" r="7.5" fill="#F4F1F1"/>
<circle cx="83.5" cy="159.5" r="7.5" fill="#F4F1F1"/>
<circle cx="102.5" cy="159.5" r="7.5" fill="#F4F1F1"/>
<circle cx="121.5" cy="159.5" r="7.5" fill="#F4F1F1"/>
<circle cx="140.5" cy="159.5" r="7.5" fill="#F4F1F1"/>
<circle cx="159.5" cy="159.5" r="7.5" fill="#F4F1F1"/>
<circle cx="178.5" cy="159.5" r="7.5" fill="#F4F1F1"/>
<circle cx="7.5" cy="178.5" r="7.5" fill="#F4F1F1"/>
<circle cx="26.5" cy="178.5" r="7.5" fill="#F4F1F1"/>
<circle cx="45.5" cy="178.5" r="7.5" fill="#F4F1F1"/>
<circle cx="64.5" cy="178.5" r="7.5" fill="#F4F1F1"/>
<circle cx="83.5" cy="178.5" r="7.5" fill="#F4F1F1"/>
<circle cx="102.5" cy="178.5" r="7.5" fill="#F4F1F1"/>
<circle cx="121.5" cy="178.5" r="7.5" fill="#F4F1F1"/>
<circle cx="140.5" cy="178.5" r="7.5" fill="#F4F1F1"/>
<circle cx="159.5" cy="178.5" r="7.5" fill="#F4F1F1"/>
<circle cx="178.5" cy="178.5" r="7.5" fill="#F4F1F1"/>
</svg>
