<svg width="198" height="47" viewBox="0 0 198 47" fill="none" xmlns="http://www.w3.org/2000/svg">
<path d="M21 44C17.5465 44 14.1464 43.1077 11.1007 41.4023C8.05498 39.6968 5.45778 37.2307 3.53914 34.2225C1.62049 31.2144 0.43962 27.7569 0.101121 24.1564C-0.237379 20.5559 0.276944 16.9235 1.59853 13.581C2.92012 10.2384 5.00817 7.28896 7.67774 4.99377C10.3473 2.69859 13.516 1.12855 16.9031 0.422724C20.2902 -0.283098 23.7912 -0.102915 27.096 0.947312C30.4007 1.99754 33.4073 3.88539 35.8492 6.44365L31.1045 11.4144C29.4428 9.67355 27.3969 8.38892 25.1481 7.67428C22.8993 6.95963 20.517 6.83702 18.2122 7.31731C15.9074 7.7976 13.7512 8.86597 11.9346 10.4278C10.118 11.9896 8.69718 13.9966 7.79788 16.2711C6.89858 18.5456 6.5486 21.0173 6.77894 23.4674C7.00928 25.9174 7.81283 28.2701 9.11841 30.3171C10.424 32.3641 12.1913 34.0421 14.2638 35.2027C16.3363 36.3632 18.65 36.9703 21 36.9703V44Z" fill="#C4C4C4"/>
<rect width="32" height="36" transform="translate(21 11)" fill="#7325F1"/>
<path d="M27.4062 40V18.1818H33.3295V27.0028H33.6278L40.1903 18.1818H47.0938L39.7216 27.8977L47.2642 40H40.1903L35.2898 31.8182L33.3295 34.375V40H27.4062Z" fill="white" fill-opacity="0.99"/>
<path d="M67.4112 34.1179V24.6364H71.2678V41H67.5284V38.0916H67.358C66.9886 39.0078 66.3814 39.7571 65.5362 40.3395C64.6982 40.9219 63.6648 41.2131 62.4361 41.2131C61.3636 41.2131 60.4155 40.9751 59.5916 40.4993C58.7749 40.0163 58.1357 39.3168 57.674 38.4006C57.2124 37.4773 56.9815 36.3622 56.9815 35.0554V24.6364H60.8381V34.4588C60.8381 35.4957 61.1222 36.3196 61.6903 36.9304C62.2585 37.5412 63.0043 37.8466 63.9276 37.8466C64.4957 37.8466 65.0462 37.7081 65.5788 37.4311C66.1115 37.1541 66.5483 36.7422 66.8892 36.1953C67.2372 35.6413 67.4112 34.9489 67.4112 34.1179ZM88.1667 28.9616L84.6511 29.3452C84.5517 28.9901 84.3777 28.6562 84.1291 28.3438C83.8876 28.0312 83.5609 27.7791 83.149 27.5874C82.737 27.3956 82.2328 27.2997 81.6362 27.2997C80.8336 27.2997 80.1589 27.4737 79.612 27.8217C79.0723 28.1697 78.8059 28.6207 78.813 29.1747C78.8059 29.6506 78.9799 30.0376 79.335 30.3359C79.6973 30.6342 80.2939 30.8793 81.1248 31.071L83.916 31.6676C85.4643 32.0014 86.6149 32.5305 87.3677 33.255C88.1277 33.9794 88.5112 34.9276 88.5183 36.0994C88.5112 37.1293 88.2093 38.0384 87.6127 38.8267C87.0233 39.608 86.2029 40.2187 85.1518 40.6591C84.1007 41.0994 82.8933 41.3196 81.5297 41.3196C79.5268 41.3196 77.9146 40.9006 76.693 40.0625C75.4714 39.2173 74.7434 38.0419 74.5091 36.5362L78.2697 36.174C78.4402 36.9126 78.8024 37.4702 79.3564 37.8466C79.9103 38.223 80.6312 38.4112 81.519 38.4112C82.4352 38.4112 83.1703 38.223 83.7243 37.8466C84.2853 37.4702 84.5659 37.005 84.5659 36.451C84.5659 35.9822 84.3848 35.5952 84.0226 35.2898C83.6674 34.9844 83.1135 34.75 82.3606 34.5866L79.5694 34.0007C77.9998 33.674 76.8386 33.1236 76.0858 32.3494C75.3329 31.5682 74.96 30.581 74.9672 29.3878C74.96 28.3793 75.2335 27.5057 75.7875 26.767C76.3485 26.0213 77.1262 25.446 78.1206 25.0412C79.122 24.6293 80.2761 24.4233 81.5829 24.4233C83.5005 24.4233 85.0098 24.8317 86.1106 25.6484C87.2186 26.4652 87.9039 27.5696 88.1667 28.9616ZM98.8361 41.3196C97.2381 41.3196 95.8532 40.968 94.6813 40.2649C93.5094 39.5618 92.6003 38.5781 91.954 37.3139C91.3148 36.0497 90.9952 34.5724 90.9952 32.8821C90.9952 31.1918 91.3148 29.7109 91.954 28.4396C92.6003 27.1683 93.5094 26.1811 94.6813 25.478C95.8532 24.7749 97.2381 24.4233 98.8361 24.4233C100.434 24.4233 101.819 24.7749 102.991 25.478C104.163 26.1811 105.068 27.1683 105.708 28.4396C106.354 29.7109 106.677 31.1918 106.677 32.8821C106.677 34.5724 106.354 36.0497 105.708 37.3139C105.068 38.5781 104.163 39.5618 102.991 40.2649C101.819 40.968 100.434 41.3196 98.8361 41.3196ZM98.8574 38.2301C99.7239 38.2301 100.448 37.9922 101.031 37.5163C101.613 37.0334 102.046 36.3871 102.33 35.5774C102.622 34.7678 102.767 33.8658 102.767 32.8714C102.767 31.87 102.622 30.9645 102.33 30.1548C102.046 29.3381 101.613 28.6882 101.031 28.2053C100.448 27.7223 99.7239 27.4808 98.8574 27.4808C97.9696 27.4808 97.231 27.7223 96.6415 28.2053C96.0591 28.6882 95.6223 29.3381 95.3311 30.1548C95.0471 30.9645 94.905 31.87 94.905 32.8714C94.905 33.8658 95.0471 34.7678 95.3311 35.5774C95.6223 36.3871 96.0591 37.0334 96.6415 37.5163C97.231 37.9922 97.9696 38.2301 98.8574 38.2301ZM109.95 41V24.6364H113.636V27.4169H113.828C114.169 26.4794 114.734 25.7479 115.522 25.2223C116.31 24.6896 117.251 24.4233 118.345 24.4233C119.453 24.4233 120.387 24.6932 121.147 25.233C121.914 25.7656 122.454 26.4936 122.766 27.4169H122.937C123.299 26.5078 123.91 25.7834 124.769 25.2436C125.636 24.6967 126.662 24.4233 127.848 24.4233C129.354 24.4233 130.582 24.8991 131.534 25.8509C132.486 26.8026 132.962 28.1911 132.962 30.0163V41H129.094V30.6129C129.094 29.5973 128.825 28.8551 128.285 28.3864C127.745 27.9105 127.085 27.6726 126.303 27.6726C125.373 27.6726 124.645 27.9638 124.119 28.5462C123.601 29.1214 123.342 29.8707 123.342 30.794V41H119.56V30.4531C119.56 29.608 119.304 28.9332 118.793 28.429C118.288 27.9247 117.628 27.6726 116.811 27.6726C116.257 27.6726 115.753 27.8146 115.298 28.0987C114.844 28.3757 114.482 28.7699 114.212 29.2812C113.942 29.7855 113.807 30.375 113.807 31.0497V41H109.95ZM141.583 41.3303C140.546 41.3303 139.612 41.1456 138.781 40.7763C137.957 40.3999 137.304 39.8459 136.821 39.1143C136.345 38.3828 136.107 37.4808 136.107 36.4084C136.107 35.4851 136.278 34.7216 136.618 34.1179C136.959 33.5142 137.425 33.0312 138.014 32.669C138.604 32.3068 139.268 32.0334 140.006 31.8487C140.752 31.657 141.523 31.5185 142.318 31.4332C143.277 31.3338 144.055 31.245 144.651 31.1669C145.248 31.0817 145.681 30.9538 145.951 30.7834C146.228 30.6058 146.366 30.3324 146.366 29.9631V29.8991C146.366 29.0966 146.128 28.4751 145.653 28.0348C145.177 27.5945 144.491 27.3743 143.596 27.3743C142.652 27.3743 141.903 27.5803 141.349 27.9922C140.802 28.4041 140.432 28.8906 140.241 29.4517L136.64 28.9403C136.924 27.946 137.393 27.1151 138.046 26.4474C138.699 25.7727 139.498 25.2685 140.443 24.9347C141.388 24.5938 142.432 24.4233 143.575 24.4233C144.363 24.4233 145.148 24.5156 145.93 24.7003C146.711 24.8849 147.425 25.1903 148.071 25.6165C148.717 26.0355 149.236 26.6072 149.626 27.3317C150.024 28.0561 150.223 28.9616 150.223 30.0483V41H146.515V38.7521H146.388C146.153 39.2067 145.823 39.6328 145.397 40.0305C144.978 40.4212 144.449 40.7372 143.809 40.9787C143.177 41.2131 142.435 41.3303 141.583 41.3303ZM142.584 38.4964C143.358 38.4964 144.03 38.3437 144.598 38.0384C145.166 37.7259 145.603 37.3139 145.908 36.8026C146.221 36.2912 146.377 35.7337 146.377 35.13V33.2017C146.256 33.3011 146.05 33.3935 145.759 33.4787C145.475 33.5639 145.155 33.6385 144.8 33.7024C144.445 33.7663 144.094 33.8232 143.746 33.8729C143.398 33.9226 143.096 33.9652 142.84 34.0007C142.265 34.0788 141.75 34.2067 141.295 34.3842C140.841 34.5618 140.482 34.8104 140.219 35.13C139.956 35.4425 139.825 35.8473 139.825 36.3445C139.825 37.0547 140.084 37.5909 140.603 37.9531C141.121 38.3153 141.782 38.4964 142.584 38.4964ZM156.476 41.2344C155.83 41.2344 155.276 41.0071 154.814 40.5526C154.353 40.098 154.126 39.544 154.133 38.8906C154.126 38.2514 154.353 37.7045 154.814 37.25C155.276 36.7955 155.83 36.5682 156.476 36.5682C157.101 36.5682 157.645 36.7955 158.106 37.25C158.575 37.7045 158.813 38.2514 158.82 38.8906C158.813 39.3239 158.699 39.718 158.479 40.0732C158.266 40.4283 157.982 40.7124 157.627 40.9254C157.279 41.1314 156.895 41.2344 156.476 41.2344ZM166.925 19.1818V41H162.972V19.1818H166.925ZM178.172 41.3196C176.574 41.3196 175.189 40.968 174.017 40.2649C172.845 39.5618 171.936 38.5781 171.29 37.3139C170.651 36.0497 170.331 34.5724 170.331 32.8821C170.331 31.1918 170.651 29.7109 171.29 28.4396C171.936 27.1683 172.845 26.1811 174.017 25.478C175.189 24.7749 176.574 24.4233 178.172 24.4233C179.77 24.4233 181.155 24.7749 182.327 25.478C183.499 26.1811 184.404 27.1683 185.044 28.4396C185.69 29.7109 186.013 31.1918 186.013 32.8821C186.013 34.5724 185.69 36.0497 185.044 37.3139C184.404 38.5781 183.499 39.5618 182.327 40.2649C181.155 40.968 179.77 41.3196 178.172 41.3196ZM178.193 38.2301C179.06 38.2301 179.784 37.9922 180.367 37.5163C180.949 37.0334 181.382 36.3871 181.666 35.5774C181.958 34.7678 182.103 33.8658 182.103 32.8714C182.103 31.87 181.958 30.9645 181.666 30.1548C181.382 29.3381 180.949 28.6882 180.367 28.2053C179.784 27.7223 179.06 27.4808 178.193 27.4808C177.306 27.4808 176.567 27.7223 175.977 28.2053C175.395 28.6882 174.958 29.3381 174.667 30.1548C174.383 30.9645 174.241 31.87 174.241 32.8714C174.241 33.8658 174.383 34.7678 174.667 35.5774C174.958 36.3871 175.395 37.0334 175.977 37.5163C176.567 37.9922 177.306 38.2301 178.193 38.2301Z" fill="#332053"/>
</svg>
