<svg width="53" height="47" viewBox="0 0 53 47" fill="none" xmlns="http://www.w3.org/2000/svg">
<path d="M21 44C17.5465 44 14.1464 43.1077 11.1007 41.4023C8.05498 39.6968 5.45778 37.2307 3.53914 34.2225C1.62049 31.2144 0.43962 27.7569 0.101121 24.1564C-0.237379 20.5559 0.276944 16.9235 1.59853 13.581C2.92012 10.2384 5.00817 7.28896 7.67774 4.99377C10.3473 2.69859 13.516 1.12855 16.9031 0.422724C20.2902 -0.283098 23.7912 -0.102915 27.096 0.947312C30.4007 1.99754 33.4073 3.88539 35.8492 6.44365L31.1045 11.4144C29.4428 9.67355 27.3969 8.38892 25.1481 7.67428C22.8993 6.95963 20.517 6.83702 18.2122 7.31731C15.9074 7.7976 13.7512 8.86597 11.9346 10.4278C10.118 11.9896 8.69718 13.9966 7.79788 16.2711C6.89858 18.5456 6.5486 21.0173 6.77894 23.4674C7.00928 25.9174 7.81283 28.2701 9.11841 30.3171C10.424 32.3641 12.1913 34.0421 14.2638 35.2027C16.3363 36.3632 18.65 36.9703 21 36.9703V44Z" fill="#C4C4C4"/>
<rect width="32" height="36" transform="translate(21 11)" fill="#7325F1"/>
<path d="M27.4062 40V18.1818H33.3295V27.0028H33.6278L40.1903 18.1818H47.0938L39.7216 27.8977L47.2642 40H40.1903L35.2898 31.8182L33.3295 34.375V40H27.4062Z" fill="white" fill-opacity="0.99"/>
</svg>
